<?xml version="1.0" standalone="no"?>
<!DOCTYPE svg PUBLIC "-//W3C//DTD SVG 20010904//EN"
 "http://www.w3.org/TR/2001/REC-SVG-20010904/DTD/svg10.dtd">
<svg version="1.0" xmlns="http://www.w3.org/2000/svg"
 width="1024.000000pt" height="1024.000000pt" viewBox="0 0 1024.000000 1024.000000"
 preserveAspectRatio="xMidYMid meet">
<metadata>
Created by potrace 1.16, written by Peter Selinger 2001-2019
</metadata>
<g transform="translate(0.000000,1024.000000) scale(0.100000,-0.100000)"
fill="#000000" stroke="none">
<path d="M0 5120 l0 -5120 5120 0 5120 0 0 5120 0 5120 -5120 0 -5120 0 0
-5120z m3838 2488 c15 -32 3 -71 -30 -91 -25 -16 -167 -39 -380 -63 -181 -20
-238 -39 -270 -89 -18 -27 -19 -43 -13 -155 3 -69 5 -335 5 -591 0 -455 0
-467 20 -492 28 -36 70 -41 165 -22 126 26 417 62 454 55 21 -3 42 -15 54 -32
18 -24 19 -32 9 -67 -17 -55 -46 -69 -175 -86 -61 -8 -155 -21 -207 -29 -151
-23 -301 -30 -343 -17 -47 16 -103 79 -118 133 -8 32 -10 207 -6 664 l4 622
26 56 c35 77 118 158 182 179 28 9 118 24 200 32 83 9 195 22 250 29 114 14
152 6 173 -36z m2010 -14 c4 -61 24 -53 -216 -85 -195 -26 -194 -26 -190 46 3
47 -4 44 213 74 194 27 189 28 193 -35z m430 -206 c14 -14 16 -94 2 -103 -5
-3 -76 -14 -157 -25 -81 -11 -233 -31 -338 -45 -234 -32 -357 -47 -645 -80
-124 -14 -311 -37 -417 -52 -220 -31 -229 -29 -220 40 3 22 10 44 16 50 6 6
151 28 323 49 172 21 558 70 858 107 300 38 550 70 556 70 5 1 15 -4 22 -11z
m-3020 -468 c0 -114 -4 -200 -9 -200 -8 0 -15 115 -12 185 3 57 16 215 18 215
2 0 3 -90 3 -200z m-658 -434 l0 -603 -50 -47 c-32 -30 -58 -46 -75 -46 l-25
0 0 581 c0 571 0 582 21 615 24 39 109 115 121 108 4 -3 8 -277 8 -608z m1110
546 c0 -35 2 -37 33 -37 30 0 32 -3 35 -36 3 -35 1 -37 -32 -43 -35 -7 -36 -8
-36 -55 0 -48 0 -49 -35 -53 -20 -2 -38 -2 -40 1 -3 2 -5 24 -5 48 l0 43 -41
0 c-39 0 -40 1 -37 32 3 28 8 33 41 41 36 9 37 10 37 52 0 42 1 44 33 47 44 5
47 2 47 -40z m165 22 c44 -17 59 -116 25 -172 -24 -40 -57 -41 -52 -2 2 14 3
60 3 103 0 42 1 77 3 77 3 0 12 -3 21 -6z m1879 -42 c-18 -11 -10 -49 15 -76
l23 -24 -55 -7 c-31 -4 -80 -8 -109 -9 l-53 -1 -3 40 c-3 55 9 68 70 76 77 9
125 10 112 1z m-2263 -23 c-4 -17 -3 -146 1 -173 5 -29 -19 -30 -47 -2 -19 19
-25 35 -25 70 0 53 14 96 38 114 20 15 38 10 33 -9z m3037 -185 c15 -4 21 -12
18 -21 -3 -8 -1 -11 4 -8 15 9 12 -51 -3 -63 -14 -12 -85 -28 -157 -36 -25 -2
-83 -9 -130 -15 -47 -7 -269 -34 -495 -61 -225 -28 -464 -57 -529 -65 -138
-17 -146 -14 -146 51 0 32 4 44 18 48 13 4 524 68 1312 164 41 5 77 10 80 11
3 0 15 -2 28 -5z m-3771 -551 c-1 -76 -3 -14 -3 137 0 151 2 213 3 138 2 -76
2 -200 0 -275z m510 315 c-3 -7 -5 -2 -5 12 0 14 2 19 5 13 2 -7 2 -19 0 -25z
m1533 5 c25 -31 20 -65 -12 -100 -42 -45 -108 -15 -108 49 0 70 78 104 120 51z
m-392 -35 c14 -14 16 -76 3 -96 -5 -9 -89 -23 -251 -42 -134 -17 -295 -37
-359 -45 -63 -8 -134 -15 -158 -15 l-43 0 0 55 c0 48 3 57 23 64 12 5 117 18
232 30 116 13 273 31 350 41 174 22 188 23 203 8z m1875 -75 c-7 -2 -19 -2
-25 0 -7 3 -2 5 12 5 14 0 19 -2 13 -5z m-163 -23 c-14 -4 -44 -8 -67 -9 -23
-1 -45 -6 -48 -11 -4 -6 -11 -8 -16 -5 -5 4 -9 0 -9 -7 0 -9 -3 -10 -8 -2 -4
7 -15 8 -27 3 -17 -6 -17 -8 -2 -8 30 -2 19 -30 -15 -39 -33 -8 -53 -42 -25
-42 9 0 18 -6 20 -12 4 -10 8 -9 16 2 9 13 11 13 11 -2 0 -10 3 -17 8 -17 20
3 45 -2 38 -8 -3 -4 -53 -12 -109 -19 -56 -7 -144 -17 -195 -23 -51 -6 -98 -9
-103 -6 -5 4 -9 1 -9 -4 0 -6 -12 -11 -26 -11 -14 0 -118 -11 -231 -25 -157
-20 -208 -23 -219 -14 -9 8 -14 33 -14 75 0 78 -3 76 165 93 66 7 184 20 263
29 95 12 142 15 142 8 0 -7 3 -6 8 1 4 6 39 15 77 18 39 4 131 15 205 25 74 9
149 17 165 18 29 0 29 0 5 -8z m-1352 -476 c42 -29 13 -104 -41 -104 -46 0
-63 53 -31 98 18 26 41 28 72 6z m2682 -779 l0 -785 -39 2 c-21 2 -37 6 -35 9
5 9 -63 60 -84 64 -9 1 -16 7 -15 13 3 11 -60 62 -76 62 -6 0 -11 -4 -11 -9 0
-5 -9 -11 -20 -14 -19 -5 -20 2 -24 312 -4 349 -5 361 -15 361 -8 0 -6 2 -161
-180 -276 -327 -277 -328 -321 -335 l-39 -7 -238 233 -237 232 -3 -319 -2
-319 -88 -34 c-48 -18 -117 -48 -155 -67 l-67 -34 2 723 3 722 76 3 75 3 165
-148 c90 -81 218 -200 284 -263 160 -154 246 -230 260 -230 7 0 39 35 71 78
69 92 447 563 517 644 50 58 62 63 140 67 l37 1 0 -785z m-2988 738 c24 -22
23 -52 -4 -80 -28 -30 -52 -29 -77 3 -19 24 -18 49 5 85 9 15 56 10 76 -8z
m-283 -55 c13 -23 13 -30 2 -52 -18 -34 -46 -41 -76 -22 -29 19 -34 66 -9 91
24 23 66 15 83 -17z m1039 -231 c108 -38 177 -82 268 -173 138 -136 191 -280
181 -484 -12 -223 -82 -388 -232 -548 -110 -118 -261 -207 -419 -247 -101 -26
-280 -50 -296 -40 -5 3 -10 2 -10 -3 0 -4 -42 -14 -92 -21 -262 -36 -306 -41
-341 -41 l-39 0 4 749 c1 412 6 752 9 756 7 6 228 34 479 59 85 9 169 18 185
20 17 2 75 3 130 2 77 -2 117 -9 173 -29z m-1128 -747 l0 -690 -132 0 c-73 0
-143 -3 -155 -6 l-23 -6 -1 273 c0 151 -4 296 -7 324 l-7 50 -160 -179 c-88
-98 -197 -222 -242 -274 -90 -105 -111 -121 -161 -122 -31 0 -54 20 -255 223
l-222 222 -3 -332 c-1 -183 -6 -333 -10 -333 -4 0 -7 -26 -7 -57 0 -53 -2 -58
-30 -73 -16 -8 -32 -17 -35 -20 -16 -16 -82 -39 -96 -33 -12 4 -15 3 -10 -6 4
-6 4 -11 -1 -10 -4 1 -24 -5 -43 -14 -19 -8 -38 -13 -43 -10 -4 2 -13 0 -20
-6 -10 -7 -13 -5 -14 9 -2 28 23 45 50 33 32 -13 51 -6 70 26 22 38 22 41 -9
41 -23 0 -24 2 -10 15 8 8 22 15 30 15 9 0 16 5 16 11 0 6 9 8 23 4 18 -5 19
-4 5 5 -13 8 -30 3 -75 -21 -32 -18 -70 -41 -85 -51 l-28 -19 0 794 c0 880 -6
807 65 807 48 0 106 -52 350 -310 211 -223 429 -434 444 -428 4 2 62 68 127
148 234 284 400 486 476 582 84 104 79 101 191 106 l37 2 0 -690z m3268 -925
c-2 -2 -15 -1 -28 2 l-25 7 25 6 c22 6 39 -4 28 -15z m-2513 -28 c-16 -13 -15
-14 14 -9 25 3 30 1 25 -11 -3 -9 6 -25 22 -40 24 -23 25 -25 8 -30 -39 -12
-286 -38 -300 -33 -8 3 -13 2 -10 -2 3 -5 -63 -16 -147 -26 -84 -9 -206 -23
-272 -31 -325 -39 -413 -48 -428 -42 -21 8 -24 89 -4 104 10 9 214 36 552 74
55 6 186 22 290 34 105 12 208 23 229 24 36 1 38 0 21 -12z m-2368 -37 c-1
-12 -8 -20 -20 -20 -11 0 -17 5 -14 13 2 6 10 11 16 10 6 -2 11 2 11 7 0 6 2
10 4 10 3 0 4 -9 3 -20z m4763 -3 c0 -7 -4 -6 -10 3 -6 10 -10 -182 -10 -552
l0 -568 -24 0 c-13 0 -44 -3 -70 -6 l-46 -7 0 497 0 496 71 80 c64 73 89 89
89 57z m104 17 c23 -9 20 -24 -4 -24 -11 0 -20 7 -20 15 0 17 2 18 24 9z
m-688 -50 c12 -3 28 -21 38 -40 14 -31 16 -93 16 -572 0 -558 -2 -589 -44
-669 -9 -18 -34 -42 -55 -52 -35 -18 -164 -41 -316 -56 -56 -6 -324 -39 -670
-84 -82 -11 -178 -22 -211 -26 l-61 -7 -8 57 c-3 31 -5 58 -3 60 2 2 75 13
163 24 581 73 877 112 920 121 71 15 109 41 134 92 20 43 21 55 21 497 l0 452
-24 24 c-15 15 -20 26 -13 29 7 2 -4 2 -23 0 -231 -28 -348 -42 -360 -43 -8 0
-73 -8 -143 -18 -92 -12 -133 -14 -144 -7 -26 16 -36 69 -21 102 15 30 -6 26
363 72 99 13 218 28 265 35 101 14 147 17 176 9z m-3648 -267 c6 -7 12 -83 14
-183 3 -149 1 -171 -12 -167 -13 4 -13 3 0 -5 8 -6 17 -9 21 -6 4 2 14 -11 23
-29 8 -17 16 -29 16 -24 0 4 15 0 32 -9 27 -14 52 -16 150 -11 l118 6 0 -49
c0 -59 -27 -95 -63 -85 -15 4 -18 3 -9 -3 10 -7 5 -13 -20 -23 -43 -18 -210
-19 -216 -1 -2 7 -8 10 -13 7 -20 -13 -116 58 -139 103 -8 16 -8 27 -1 35 6 8
6 18 1 27 -8 12 -10 11 -12 -5 -1 -11 -4 68 -8 175 -4 107 -3 200 2 206 4 6 5
14 1 17 -3 4 -1 7 5 7 5 0 13 -6 15 -12 3 -8 6 -6 6 5 1 9 -4 17 -10 17 -5 0
-7 5 -4 10 9 14 91 12 103 -3z m907 -117 l0 -55 -50 -8 c-146 -22 -627 -76
-640 -71 -22 9 -28 40 -15 79 13 38 16 39 145 50 39 3 138 15 220 26 183 24
305 37 325 35 11 -1 15 -15 15 -56z m2103 -368 c2 -88 0 -103 -14 -109 -28
-11 -44 25 -44 98 0 81 13 122 38 117 15 -3 17 -17 20 -106z m284 64 c11 -16
10 -54 -2 -75 -7 -14 -31 -21 -92 -30 -46 -7 -95 -14 -110 -16 -28 -4 -28 -4
-28 55 0 41 4 60 13 61 6 0 48 6 92 13 82 14 115 12 127 -8z m-528 -17 c36
-17 51 -59 36 -103 -20 -61 -83 -76 -119 -30 -43 54 -16 121 56 143 1 1 13 -4
27 -10z m-624 -153 c0 -43 -4 -56 -17 -60 -16 -5 -403 -56 -424 -56 -5 0 -9
27 -9 60 0 54 2 60 23 65 38 9 330 43 380 44 l47 1 0 -54z"/>
<path d="M5676 6375 c-3 -8 -1 -15 4 -15 6 0 10 7 10 15 0 8 -2 15 -4 15 -2 0
-6 -7 -10 -15z"/>
<path d="M5630 6370 c-9 -6 -10 -10 -3 -10 6 0 15 5 18 10 8 12 4 12 -15 0z"/>
<path d="M5857 6299 c7 -7 15 -10 18 -7 3 3 -2 9 -12 12 -14 6 -15 5 -6 -5z"/>
<path d="M5823 6273 c9 -2 25 -2 35 0 9 3 1 5 -18 5 -19 0 -27 -2 -17 -5z"/>
<path d="M5498 6233 c7 -3 16 -2 19 1 4 3 -2 6 -13 5 -11 0 -14 -3 -6 -6z"/>
<path d="M4935 5294 c-16 -2 -95 -11 -175 -20 -80 -8 -153 -17 -162 -20 -16
-5 -17 -37 -17 -415 l0 -411 37 6 c20 3 96 13 167 21 180 21 231 32 300 67 81
40 176 135 217 217 32 64 33 70 33 186 0 107 -3 125 -25 170 -32 66 -108 141
-174 171 -52 24 -141 36 -201 28z m80 -245 c31 -27 35 -37 35 -78 0 -105 -94
-171 -181 -125 -31 15 -59 66 -59 103 0 37 30 96 58 114 45 28 105 22 147 -14z"/>
<path d="M2670 4020 c-8 -5 -12 -12 -9 -15 4 -3 12 1 19 10 14 17 11 19 -10 5z"/>
<path d="M2620 3995 c-14 -8 -20 -14 -14 -15 5 0 19 7 30 15 24 18 16 19 -16
0z"/>
<path d="M6548 3843 c6 -2 12 -13 12 -24 0 -17 8 -19 60 -19 48 0 60 3 60 16
0 9 -8 14 -17 13 -29 -2 -39 1 -26 9 6 4 -14 8 -45 9 -32 1 -51 -1 -44 -4z"/>
<path d="M6475 3750 c-3 -5 3 -10 14 -10 12 0 21 5 21 10 0 6 -6 10 -14 10 -8
0 -18 -4 -21 -10z"/>
<path d="M6683 3695 c0 -22 2 -30 4 -17 2 12 2 30 0 40 -3 9 -5 -1 -4 -23z"/>
<path d="M6613 3655 c-21 -23 -16 -55 8 -55 18 0 20 2 8 16 -10 12 -10 20 -1
35 14 22 3 25 -15 4z"/>
<path d="M6673 3643 c-17 -6 -16 -31 2 -49 13 -14 15 -11 15 20 0 20 -1 36 -2
35 -2 0 -9 -3 -15 -6z"/>
<path d="M6594 3304 c3 -9 6 -18 6 -20 0 -3 5 -2 10 1 16 10 12 35 -6 35 -11
0 -14 -5 -10 -16z"/>
<path d="M6640 3220 c0 -11 5 -20 10 -20 6 0 10 9 10 20 0 11 -4 20 -10 20 -5
0 -10 -9 -10 -20z"/>
<path d="M6648 3113 c6 -2 12 -20 12 -39 0 -19 5 -34 10 -34 6 0 10 18 10 40
0 35 -3 40 -22 39 -13 0 -17 -3 -10 -6z"/>
<path d="M6598 2888 c-4 -132 -8 -158 -26 -190 -18 -31 -19 -38 -7 -38 9 0 20
10 25 23 5 12 9 16 9 10 1 -7 13 -13 27 -13 21 0 24 4 19 20 -5 15 -2 20 13
20 11 0 22 -3 25 -7 2 -5 2 -2 0 5 -1 7 1 21 6 30 12 23 2 72 -15 72 -11 0
-14 19 -14 80 0 47 -4 80 -10 80 -5 0 -10 14 -10 30 0 23 -5 30 -19 30 -17 0
-19 -12 -23 -152z m42 -8 c0 -22 -4 -40 -10 -40 -11 0 -14 63 -3 73 11 12 13
8 13 -33z"/>
<path d="M6692 3020 c0 -14 2 -19 5 -12 2 6 2 18 0 25 -3 6 -5 1 -5 -13z"/>
<path d="M6495 2622 l-40 -23 40 6 c43 7 75 21 75 33 0 15 -36 7 -75 -16z"/>
<path d="M3003 3345 c0 -27 2 -38 4 -22 2 15 2 37 0 50 -2 12 -4 0 -4 -28z"/>
<path d="M2911 3214 c0 -11 3 -14 6 -6 3 7 2 16 -1 19 -3 4 -6 -2 -5 -13z"/>
<path d="M2985 3050 c3 -5 8 -10 11 -10 2 0 4 5 4 10 0 6 -5 10 -11 10 -5 0
-7 -4 -4 -10z"/>
<path d="M3025 3030 c4 -6 11 -8 16 -5 14 9 11 15 -7 15 -8 0 -12 -5 -9 -10z"/>
<path d="M3107 3034 c-11 -12 3 -24 29 -24 15 0 24 6 24 15 0 15 -40 21 -53 9z"/>
</g>
</svg>
