<?xml version="1.0" encoding="us-ascii" standalone="no"?><svg xmlns="http://www.w3.org/2000/svg" xmlns:xlink="http://www.w3.org/1999/xlink" contentStyleType="text/css" height="445px" preserveAspectRatio="none" style="width:720px;height:445px;background:#FFFFFF;" version="1.1" viewBox="0 0 720 445" width="720px" zoomAndPan="magnify"><defs/><g><!--class VirtualMemory--><g id="elem_VirtualMemory"><rect codeLine="3" fill="#FFFFFF" height="64.1358" id="VirtualMemory" rx="2.5" ry="2.5" style="stroke:#000000;stroke-width:1.0;" width="244" x="114" y="12"/><ellipse cx="182.75" cy="26.534" fill="#FFFFFF" rx="9" ry="9" style="stroke:#000000;stroke-width:1.0;"/><path d="M182.2188,33.4558 Q180.4688,33.4558 179.3281,32.7215 Q178.2031,31.9715 177.6406,30.6277 Q177.0938,29.2683 177.0938,27.4715 Q177.0938,25.4402 177.75,23.9871 Q178.4063,22.534 179.6875,21.7527 Q180.9688,20.9715 182.8438,20.9715 Q183.7344,20.9715 184.4063,21.159 Q185.0781,21.3308 185.7656,21.6746 L184.9531,23.6902 Q184.3281,23.3777 183.7813,23.2527 Q183.25,23.1277 182.7656,23.1277 Q181.5938,23.1277 180.8906,23.659 Q180.1875,24.1902 179.8906,25.1433 Q179.5938,26.0965 179.5938,27.3621 Q179.5938,29.3777 180.3125,30.3465 Q181.0313,31.2996 182.625,31.2996 Q183.2188,31.2996 183.8438,31.1433 Q184.4688,30.9871 185.2969,30.6121 L185.2969,32.8308 Q184.5625,33.1433 183.7656,33.2996 Q182.9844,33.4558 182.2188,33.4558 Z " fill="#000000"/><text fill="#000000" font-family="Verdana" font-size="14" lengthAdjust="spacing" textLength="99" x="200.25" y="31.9659">VirtualMemory</text><line style="stroke:#000000;stroke-width:1.0;" x1="115" x2="357" y1="41.0679" y2="41.0679"/><ellipse cx="125" cy="56.1019" fill="none" rx="3" ry="3" style="stroke:#000000;stroke-width:1.0;"/><text fill="#000000" font-family="Verdana" font-size="14" lengthAdjust="spacing" textLength="220" x="132" y="60.0339">vector&lt;MemoryContent&gt; content</text><line style="stroke:#000000;stroke-width:1.0;" x1="115" x2="357" y1="68.1358" y2="68.1358"/></g><!--class MemoryContent--><g id="elem_MemoryContent"><rect codeLine="7" fill="#FFFFFF" height="83.2038" id="MemoryContent" rx="2.5" ry="2.5" style="stroke:#000000;stroke-width:1.0;" width="148" x="162" y="155.14"/><ellipse cx="180.4" cy="169.674" fill="#FFFFFF" rx="9" ry="9" style="stroke:#000000;stroke-width:1.0;"/><path d="M179.8688,176.5958 Q178.1188,176.5958 176.9781,175.8615 Q175.8531,175.1115 175.2906,173.7677 Q174.7438,172.4083 174.7438,170.6115 Q174.7438,168.5802 175.4,167.1271 Q176.0563,165.674 177.3375,164.8927 Q178.6188,164.1115 180.4938,164.1115 Q181.3844,164.1115 182.0563,164.299 Q182.7281,164.4708 183.4156,164.8146 L182.6031,166.8302 Q181.9781,166.5177 181.4313,166.3927 Q180.9,166.2677 180.4156,166.2677 Q179.2438,166.2677 178.5406,166.799 Q177.8375,167.3302 177.5406,168.2833 Q177.2438,169.2365 177.2438,170.5021 Q177.2438,172.5177 177.9625,173.4865 Q178.6813,174.4396 180.275,174.4396 Q180.8688,174.4396 181.4938,174.2833 Q182.1188,174.1271 182.9469,173.7521 L182.9469,175.9708 Q182.2125,176.2833 181.4156,176.4396 Q180.6344,176.5958 179.8688,176.5958 Z " fill="#000000"/><text fill="#000000" font-family="Verdana" font-size="14" lengthAdjust="spacing" textLength="108" x="193.6" y="175.1059">MemoryContent</text><line style="stroke:#000000;stroke-width:1.0;" x1="163" x2="309" y1="184.2079" y2="184.2079"/><rect fill="none" height="6" style="stroke:#000000;stroke-width:1.0;" width="6" x="170" y="196.2419"/><text fill="#000000" font-family="Verdana" font-size="14" lengthAdjust="spacing" textLength="59" x="180" y="203.1739">dNib nib</text><rect fill="none" height="6" style="stroke:#000000;stroke-width:1.0;" width="6" x="170" y="215.3098"/><text fill="#000000" font-family="Verdana" font-size="14" lengthAdjust="spacing" textLength="124" x="180" y="222.2418">variant&lt;_&gt; content</text><line style="stroke:#000000;stroke-width:1.0;" x1="163" x2="309" y1="230.3438" y2="230.3438"/></g><!--class dNib--><g id="elem_dNib"><rect codeLine="12" fill="#FFFFFF" height="121.3396" id="dNib" rx="2.5" ry="2.5" style="stroke:#000000;stroke-width:1.0;" width="86" x="12" y="317.34"/><ellipse cx="36.25" cy="331.874" fill="#FFFFFF" rx="9" ry="9" style="stroke:#000000;stroke-width:1.0;"/><path d="M35.7188,338.7958 Q33.9688,338.7958 32.8281,338.0615 Q31.7031,337.3115 31.1406,335.9677 Q30.5938,334.6083 30.5938,332.8115 Q30.5938,330.7802 31.25,329.3271 Q31.9063,327.874 33.1875,327.0927 Q34.4688,326.3115 36.3438,326.3115 Q37.2344,326.3115 37.9063,326.499 Q38.5781,326.6708 39.2656,327.0146 L38.4531,329.0302 Q37.8281,328.7177 37.2813,328.5927 Q36.75,328.4677 36.2656,328.4677 Q35.0938,328.4677 34.3906,328.999 Q33.6875,329.5302 33.3906,330.4833 Q33.0938,331.4365 33.0938,332.7021 Q33.0938,334.7177 33.8125,335.6865 Q34.5313,336.6396 36.125,336.6396 Q36.7188,336.6396 37.3438,336.4833 Q37.9688,336.3271 38.7969,335.9521 L38.7969,338.1708 Q38.0625,338.4833 37.2656,338.6396 Q36.4844,338.7958 35.7188,338.7958 Z " fill="#000000"/><text fill="#000000" font-family="Verdana" font-size="14" lengthAdjust="spacing" textLength="33" x="50.75" y="337.3059">dNib</text><line style="stroke:#000000;stroke-width:1.0;" x1="13" x2="97" y1="346.4079" y2="346.4079"/><text fill="#000000" font-family="Verdana" font-size="14" lengthAdjust="spacing" textLength="71" x="18" y="365.3739">Undefined</text><text fill="#000000" font-family="Verdana" font-size="14" lengthAdjust="spacing" textLength="55" x="18" y="384.4418">Address</text><text fill="#000000" font-family="Verdana" font-size="14" lengthAdjust="spacing" textLength="74" x="18" y="403.5097">EndOfType</text><text fill="#000000" font-family="Verdana" font-size="14" lengthAdjust="spacing" textLength="29" x="18" y="422.5776">Lock</text><line style="stroke:#000000;stroke-width:1.0;" x1="13" x2="97" y1="430.6796" y2="430.6796"/></g><!--class content--><g id="elem_content"><rect codeLine="19" fill="#FFFFFF" height="64.1358" id="content" rx="2.5" ry="2.5" style="stroke:#000000;stroke-width:1.0;" width="88" x="374" y="345.94"/><ellipse cx="391.05" cy="360.474" fill="#FFFFFF" rx="9" ry="9" style="stroke:#000000;stroke-width:1.0;"/><path d="M390.5188,367.3958 Q388.7688,367.3958 387.6281,366.6615 Q386.5031,365.9115 385.9406,364.5677 Q385.3938,363.2083 385.3938,361.4115 Q385.3938,359.3802 386.05,357.9271 Q386.7063,356.474 387.9875,355.6927 Q389.2688,354.9115 391.1438,354.9115 Q392.0344,354.9115 392.7063,355.099 Q393.3781,355.2708 394.0656,355.6146 L393.2531,357.6302 Q392.6281,357.3177 392.0813,357.1927 Q391.55,357.0677 391.0656,357.0677 Q389.8938,357.0677 389.1906,357.599 Q388.4875,358.1302 388.1906,359.0833 Q387.8938,360.0365 387.8938,361.3021 Q387.8938,363.3177 388.6125,364.2865 Q389.3313,365.2396 390.925,365.2396 Q391.5188,365.2396 392.1438,365.0833 Q392.7688,364.9271 393.5969,364.5521 L393.5969,366.7708 Q392.8625,367.0833 392.0656,367.2396 Q391.2844,367.3958 390.5188,367.3958 Z " fill="#000000"/><text fill="#000000" font-family="Verdana" font-size="14" lengthAdjust="spacing" textLength="51" x="403.95" y="365.9059">content</text><line style="stroke:#000000;stroke-width:1.0;" x1="375" x2="461" y1="375.0079" y2="375.0079"/><text fill="#000000" font-family="Verdana" font-size="14" lengthAdjust="spacing" textLength="76" x="380" y="393.9739">contentbits</text><line style="stroke:#000000;stroke-width:1.0;" x1="375" x2="461" y1="402.0758" y2="402.0758"/></g><g id="elem_GMN9"><path d="M393,21.36 L393,40.07 L358.5,44.07 L393,48.07 L393,66.772 A0,0 0 0 0 393,66.772 L591,66.772 A0,0 0 0 0 591,66.772 L591,31.36 L581,21.36 L393,21.36 A0,0 0 0 0 393,21.36 " fill="#FFFFFF" style="stroke:#000000;stroke-width:1.0;"/><path d="M581,21.36 L581,31.36 L591,31.36 L581,21.36 " fill="#FFFFFF" style="stroke:#000000;stroke-width:1.0;"/><text fill="#000000" font-family="Verdana" font-size="13" lengthAdjust="spacing" textLength="149" x="399" y="40.257">VirtualMemory verwaltet</text><text fill="#000000" font-family="Verdana" font-size="13" lengthAdjust="spacing" textLength="177" x="399" y="57.963">den gesamten Speicherinhalt.</text></g><g id="elem_GMN12"><path d="M345.5,156.33 L345.5,192.74 L310.27,196.74 L345.5,200.74 L345.5,237.1541 A0,0 0 0 0 345.5,237.1541 L700.5,237.1541 A0,0 0 0 0 700.5,237.1541 L700.5,166.33 L690.5,156.33 L345.5,156.33 A0,0 0 0 0 345.5,156.33 " fill="#FFFFFF" style="stroke:#000000;stroke-width:1.0;"/><path d="M690.5,156.33 L690.5,166.33 L700.5,166.33 L690.5,156.33 " fill="#FFFFFF" style="stroke:#000000;stroke-width:1.0;"/><text fill="#000000" font-family="Verdana" font-size="13" lengthAdjust="spacing" textLength="181" x="351.5" y="175.227">MemoryContent repr&#228;sentiert</text><text fill="#000000" font-family="Verdana" font-size="13" lengthAdjust="spacing" textLength="133" x="351.5" y="192.933">eine Speicherstelle mit</text><text fill="#000000" font-family="Verdana" font-size="13" lengthAdjust="spacing" textLength="201" x="351.5" y="210.639">Typinformation (dNib) und Inhalt.</text><text fill="#000000" font-family="Verdana" font-size="13" lengthAdjust="spacing" textLength="334" x="351.5" y="228.3451">Typeninformationen m&#252;ssen vorher implementiert sein.</text></g><g id="elem_GMN15"><path d="M132.5,355.3 L132.5,374.01 L98.48,378.01 L132.5,382.01 L132.5,400.712 A0,0 0 0 0 132.5,400.712 L339.5,400.712 A0,0 0 0 0 339.5,400.712 L339.5,365.3 L329.5,355.3 L132.5,355.3 A0,0 0 0 0 132.5,355.3 " fill="#FFFFFF" style="stroke:#000000;stroke-width:1.0;"/><path d="M329.5,355.3 L329.5,365.3 L339.5,365.3 L329.5,355.3 " fill="#FFFFFF" style="stroke:#000000;stroke-width:1.0;"/><text fill="#000000" font-family="Verdana" font-size="13" lengthAdjust="spacing" textLength="186" x="138.5" y="374.197">dNib kodiert Typinformationen</text><text fill="#000000" font-family="Verdana" font-size="13" lengthAdjust="spacing" textLength="184" x="138.5" y="391.903">f&#252;r MemoryContent. 4 Bit lang.</text></g><g id="elem_GMN18"><path d="M496.5,355.3 L496.5,374.01 L462.19,378.01 L496.5,382.01 L496.5,400.712 A0,0 0 0 0 496.5,400.712 L713.5,400.712 A0,0 0 0 0 713.5,400.712 L713.5,365.3 L703.5,355.3 L496.5,355.3 A0,0 0 0 0 496.5,355.3 " fill="#FFFFFF" style="stroke:#000000;stroke-width:1.0;"/><path d="M703.5,355.3 L703.5,365.3 L713.5,365.3 L703.5,355.3 " fill="#FFFFFF" style="stroke:#000000;stroke-width:1.0;"/><text fill="#000000" font-family="Verdana" font-size="13" lengthAdjust="spacing" textLength="196" x="502.5" y="374.197">content kodiert beliebigen Inhalt</text><text fill="#000000" font-family="Verdana" font-size="13" lengthAdjust="spacing" textLength="190" x="502.5" y="391.903">(registerbreite minus 4 Bit) lang.</text></g><!--link VirtualMemory to MemoryContent--><g id="link_VirtualMemory_MemoryContent"><path codeLine="23" d="M236,76.29 C236,99.04 236,124.09 236,148.83 " fill="none" id="VirtualMemory-to-MemoryContent" style="stroke:#000000;stroke-width:1.0;"/><polygon fill="#000000" points="236,154.83,240,145.83,236,149.83,232,145.83,236,154.83" style="stroke:#000000;stroke-width:1.0;"/><text fill="#000000" font-family="Verdana" font-size="13" lengthAdjust="spacing" textLength="51" x="237" y="121.037">contains</text></g><!--link MemoryContent to dNib--><g id="link_MemoryContent_dNib"><path codeLine="24" d="M194.53,238.67 C171.15,261.75 141.43,291.14 115,317.34 C109.58,322.72 108.1377,324.1425 102.4977,329.7425 " fill="none" id="MemoryContent-to-dNib" style="stroke:#000000;stroke-width:1.0;"/><polygon fill="#000000" points="98.24,333.97,107.4449,330.4672,101.7881,330.4471,101.8082,324.7903,98.24,333.97" style="stroke:#000000;stroke-width:1.0;"/><text fill="#000000" font-family="Verdana" font-size="13" lengthAdjust="spacing" textLength="27" x="163" y="283.237">uses</text></g><!--link MemoryContent to content--><g id="link_MemoryContent_content"><path codeLine="25" d="M277.3,238.42 C310.34,270.96 351.7057,311.7093 381.9357,341.4893 " fill="none" id="MemoryContent-to-content" style="stroke:#000000;stroke-width:1.0;"/><polygon fill="#000000" points="386.21,345.7,382.6056,336.5344,382.6481,342.1911,376.9914,342.2335,386.21,345.7" style="stroke:#000000;stroke-width:1.0;"/><text fill="#000000" font-family="Verdana" font-size="13" lengthAdjust="spacing" textLength="27" x="322" y="283.237">uses</text></g><!--SRC=[RLBBJiD03BpdAyoj29KJfmeX0UA0nEF0urG9RR9EQdNZZRpR8eJu6pw3MtyC9zi2cv9B_1YFFPCSn0Ms29qpn4LHEHC2F9F4bN6ts7fvW_S2z3bQOnMzdARYfUU87C-WIa7niPlD-jlPgRsZ4fZAbAsDaE5u-lBF-81CK-yreRCVyCGMQsAqMVNSMi4GijeLs_lwyQt3h7hZg-NlWYgxR8VPLakAeOVc1aodPoDPis507Gj5tkYXWuGPh0B-rwr-A0P0mJuY23MB2BuUEJyRvMkKL-CYnhbQmj1WCAsImKE7L2rGY1VQFXwJZc_FSy5EDfz1Gq9HPbIhVnX3HESGMjA66ajSUsbD9CymwNKUmeejNAUz0mJv3qXlQpTVGSbXxKNvWDhEwV-Mba7GPNldRlqRNajl1s2-6tdEzUPBSYN7S08N5C4PRlP8g-pBzT6EkaH7M5AZDoOTSvu8DgJIfHIasCldLKZiXud-6m00]--></g></svg>